<?xml version="1.0" standalone="no"?>
<!DOCTYPE svg PUBLIC "-//W3C//DTD SVG 20010904//EN"
 "http://www.w3.org/TR/2001/REC-SVG-20010904/DTD/svg10.dtd">
<svg version="1.0" xmlns="http://www.w3.org/2000/svg"
 width="2000.000000pt" height="2000.000000pt" viewBox="0 0 2000.000000 2000.000000"
 preserveAspectRatio="xMidYMid meet">
<metadata>
Created by potrace 1.14, written by Peter Selinger 2001-2017
</metadata>
<g transform="translate(0.000000,2000.000000) scale(0.100000,-0.100000)"
fill="#000000" stroke="none">
<path d="M10976 15093 c-187 -323 -440 -763 -564 -978 -124 -214 -267 -464
-320 -555 -52 -91 -129 -223 -170 -295 -41 -71 -107 -186 -147 -255 -99 -171
-780 -1353 -1100 -1910 -144 -250 -401 -696 -570 -990 -170 -294 -382 -662
-471 -817 -90 -156 -162 -283 -160 -283 4 0 971 163 1368 231 202 34 370 61
372 58 3 -2 -2 -58 -10 -124 -7 -66 -27 -232 -44 -370 -16 -137 -61 -518 -100
-845 -39 -327 -86 -727 -105 -887 -19 -161 -51 -427 -70 -590 -19 -164 -44
-372 -55 -463 -11 -91 -43 -356 -70 -590 -28 -234 -69 -577 -91 -764 -22 -186
-38 -340 -36 -342 2 -3 24 31 49 73 25 43 125 218 223 388 98 171 253 438 343
595 168 290 282 489 447 775 51 88 170 295 265 460 95 165 239 415 320 555 81
140 319 554 530 920 211 366 502 872 648 1125 146 253 314 546 375 650 473
820 688 1197 685 1200 -1 2 -111 -19 -243 -46 -217 -45 -513 -106 -1278 -263
-142 -29 -259 -50 -261 -47 -1 3 10 112 26 241 15 129 43 368 63 530 76 640
128 1080 225 1895 55 468 139 1173 186 1569 46 395 83 723 82 728 -2 5 -156
-255 -342 -579z m-52 -793 c-49 -408 -152 -1273 -239 -2010 -41 -349 -87 -734
-101 -855 -100 -838 -121 -1020 -118 -1023 1 -2 60 8 131 23 70 14 279 57 463
95 184 38 478 98 654 134 175 37 324 66 332 66 14 0 2 -22 -211 -390 -65 -113
-168 -293 -230 -400 -62 -107 -165 -287 -230 -400 -65 -113 -200 -347 -300
-520 -100 -173 -354 -614 -565 -980 -211 -366 -418 -726 -460 -800 -42 -74
-137 -238 -210 -365 -224 -387 -772 -1337 -802 -1392 -35 -62 -46 -72 -41 -35
2 15 24 200 49 412 24 212 76 648 114 970 119 1002 289 2438 308 2595 14 114
15 151 6 153 -10 3 -1462 -238 -1532 -254 -13 -2 -22 -1 -19 3 228 397 786
1365 1352 2348 241 418 504 875 585 1015 80 140 198 345 262 455 63 110 177
308 253 440 76 132 229 398 340 590 111 193 210 365 219 383 10 19 19 32 21
30 2 -2 -12 -131 -31 -288z"/>
</g>
</svg>
